<mxfile host="Electron" modified="2023-05-11T21:21:58.827Z" agent="Mozilla/5.0 (Windows NT 10.0; Win64; x64) AppleWebKit/537.36 (KHTML, like Gecko) draw.io/21.2.8 Chrome/112.0.5615.165 Electron/24.2.0 Safari/537.36" etag="XztUzONNyHzOpUfHhrIS" version="21.2.8" type="device">
  <diagram name="PÃ¡gina-1" id="bOBMU09ZP_0XKTQnbV2H">
    <mxGraphModel dx="818" dy="376" grid="1" gridSize="10" guides="1" tooltips="1" connect="1" arrows="1" fold="1" page="1" pageScale="1" pageWidth="827" pageHeight="1169" math="0" shadow="0">
      <root>
        <mxCell id="0" />
        <mxCell id="1" parent="0" />
        <mxCell id="oI4jGAhArHHVxf1wj3lw-7" style="edgeStyle=orthogonalEdgeStyle;rounded=0;orthogonalLoop=1;jettySize=auto;html=1;exitX=1;exitY=0.5;exitDx=0;exitDy=0;" parent="1" source="oI4jGAhArHHVxf1wj3lw-1" target="oI4jGAhArHHVxf1wj3lw-3" edge="1">
          <mxGeometry relative="1" as="geometry" />
        </mxCell>
        <mxCell id="oI4jGAhArHHVxf1wj3lw-16" style="edgeStyle=orthogonalEdgeStyle;rounded=0;orthogonalLoop=1;jettySize=auto;html=1;exitX=0.5;exitY=1;exitDx=0;exitDy=0;entryX=0.5;entryY=0;entryDx=0;entryDy=0;" parent="1" source="oI4jGAhArHHVxf1wj3lw-1" target="oI4jGAhArHHVxf1wj3lw-15" edge="1">
          <mxGeometry relative="1" as="geometry" />
        </mxCell>
        <mxCell id="oI4jGAhArHHVxf1wj3lw-1" value="State Manager&lt;br&gt;- Create new state.&lt;br&gt;- Run&lt;br&gt;-Delete state&lt;br&gt;- Change state" style="whiteSpace=wrap;html=1;aspect=fixed;" parent="1" vertex="1">
          <mxGeometry x="90" y="230" width="100" height="100" as="geometry" />
        </mxCell>
        <mxCell id="oI4jGAhArHHVxf1wj3lw-8" style="edgeStyle=orthogonalEdgeStyle;rounded=0;orthogonalLoop=1;jettySize=auto;html=1;" parent="1" source="oI4jGAhArHHVxf1wj3lw-3" target="oI4jGAhArHHVxf1wj3lw-4" edge="1">
          <mxGeometry relative="1" as="geometry" />
        </mxCell>
        <mxCell id="oI4jGAhArHHVxf1wj3lw-9" style="edgeStyle=orthogonalEdgeStyle;rounded=0;orthogonalLoop=1;jettySize=auto;html=1;exitX=1;exitY=0.5;exitDx=0;exitDy=0;entryX=0;entryY=0.5;entryDx=0;entryDy=0;" parent="1" source="oI4jGAhArHHVxf1wj3lw-3" target="oI4jGAhArHHVxf1wj3lw-6" edge="1">
          <mxGeometry relative="1" as="geometry" />
        </mxCell>
        <mxCell id="oI4jGAhArHHVxf1wj3lw-3" value="Main Menu&lt;br&gt;Methods&lt;br&gt;- Init&lt;br&gt;- Run" style="whiteSpace=wrap;html=1;aspect=fixed;" parent="1" vertex="1">
          <mxGeometry x="233" y="240" width="80" height="80" as="geometry" />
        </mxCell>
        <mxCell id="oI4jGAhArHHVxf1wj3lw-10" style="edgeStyle=orthogonalEdgeStyle;rounded=0;orthogonalLoop=1;jettySize=auto;html=1;exitX=1;exitY=0.5;exitDx=0;exitDy=0;" parent="1" source="oI4jGAhArHHVxf1wj3lw-4" target="oI4jGAhArHHVxf1wj3lw-5" edge="1">
          <mxGeometry relative="1" as="geometry" />
        </mxCell>
        <mxCell id="oI4jGAhArHHVxf1wj3lw-4" value="Game&lt;br style=&quot;border-color: var(--border-color);&quot;&gt;Methods&lt;br style=&quot;border-color: var(--border-color);&quot;&gt;- Init&lt;br style=&quot;border-color: var(--border-color);&quot;&gt;- Run" style="whiteSpace=wrap;html=1;aspect=fixed;" parent="1" vertex="1">
          <mxGeometry x="350" y="190" width="80" height="80" as="geometry" />
        </mxCell>
        <mxCell id="oI4jGAhArHHVxf1wj3lw-11" style="edgeStyle=orthogonalEdgeStyle;rounded=0;orthogonalLoop=1;jettySize=auto;html=1;exitX=0;exitY=0.5;exitDx=0;exitDy=0;entryX=1;entryY=0.5;entryDx=0;entryDy=0;" parent="1" source="oI4jGAhArHHVxf1wj3lw-5" target="oI4jGAhArHHVxf1wj3lw-4" edge="1">
          <mxGeometry relative="1" as="geometry" />
        </mxCell>
        <mxCell id="oI4jGAhArHHVxf1wj3lw-13" style="edgeStyle=orthogonalEdgeStyle;rounded=0;orthogonalLoop=1;jettySize=auto;html=1;exitX=0;exitY=0.5;exitDx=0;exitDy=0;" parent="1" source="oI4jGAhArHHVxf1wj3lw-5" target="oI4jGAhArHHVxf1wj3lw-6" edge="1">
          <mxGeometry relative="1" as="geometry" />
        </mxCell>
        <mxCell id="oI4jGAhArHHVxf1wj3lw-14" style="edgeStyle=orthogonalEdgeStyle;rounded=0;orthogonalLoop=1;jettySize=auto;html=1;exitX=1;exitY=0.5;exitDx=0;exitDy=0;entryX=0.5;entryY=0;entryDx=0;entryDy=0;" parent="1" source="oI4jGAhArHHVxf1wj3lw-5" target="oI4jGAhArHHVxf1wj3lw-3" edge="1">
          <mxGeometry relative="1" as="geometry">
            <Array as="points">
              <mxPoint x="590" y="280" />
              <mxPoint x="590" y="170" />
              <mxPoint x="273" y="170" />
            </Array>
          </mxGeometry>
        </mxCell>
        <mxCell id="oI4jGAhArHHVxf1wj3lw-5" value="Bar&lt;br style=&quot;border-color: var(--border-color);&quot;&gt;Methods&lt;br style=&quot;border-color: var(--border-color);&quot;&gt;- Init&lt;br style=&quot;border-color: var(--border-color);&quot;&gt;- Run" style="whiteSpace=wrap;html=1;aspect=fixed;" parent="1" vertex="1">
          <mxGeometry x="490" y="240" width="80" height="80" as="geometry" />
        </mxCell>
        <mxCell id="oI4jGAhArHHVxf1wj3lw-12" style="edgeStyle=orthogonalEdgeStyle;rounded=0;orthogonalLoop=1;jettySize=auto;html=1;exitX=1;exitY=0.5;exitDx=0;exitDy=0;entryX=0;entryY=0.5;entryDx=0;entryDy=0;" parent="1" source="oI4jGAhArHHVxf1wj3lw-6" target="oI4jGAhArHHVxf1wj3lw-5" edge="1">
          <mxGeometry relative="1" as="geometry" />
        </mxCell>
        <mxCell id="oI4jGAhArHHVxf1wj3lw-6" value="Rules&lt;br style=&quot;border-color: var(--border-color);&quot;&gt;Methods&lt;br style=&quot;border-color: var(--border-color);&quot;&gt;- Init&lt;br style=&quot;border-color: var(--border-color);&quot;&gt;- Run" style="whiteSpace=wrap;html=1;aspect=fixed;" parent="1" vertex="1">
          <mxGeometry x="350" y="290" width="80" height="80" as="geometry" />
        </mxCell>
        <mxCell id="oI4jGAhArHHVxf1wj3lw-15" value="EXIT" style="whiteSpace=wrap;html=1;aspect=fixed;" parent="1" vertex="1">
          <mxGeometry x="110" y="350" width="60" height="60" as="geometry" />
        </mxCell>
      </root>
    </mxGraphModel>
  </diagram>
</mxfile>
